<?xml version="1.0" standalone="no"?><!DOCTYPE svg PUBLIC "-//W3C//DTD SVG 1.1//EN" "http://www.w3.org/Graphics/SVG/1.1/DTD/svg11.dtd"><svg t="1509526300425" class="icon" style="" viewBox="0 0 1024 1024" version="1.1" xmlns="http://www.w3.org/2000/svg" p-id="779" xmlns:xlink="http://www.w3.org/1999/xlink" width="200" height="200"><defs><style type="text/css"></style></defs><path d="M874.16 234H149.84C112.448 234 80 198.848 80 157.008 80 115.76 111.904 80 149.84 80h724.32C911.552 80 944 115.168 944 157.008c0 41.84-30.256 76.992-69.84 76.992z m0 710H149.84C112.448 944 80 908.848 80 866.992c0-41.2 31.904-76.976 69.856-76.976h724.32c37.392 0 69.84 35.152 69.84 76.976C944 910.656 913.744 944 874.16 944z m0-354.688H149.84C112.448 589.312 80 554.144 80 512.304c0-41.216 31.904-77.008 69.856-77.008h724.32c37.392 0 69.84 35.168 69.84 77.008-0.016 41.248-30.272 77.008-69.856 77.008z" fill="#aeb9c2" p-id="780"></path></svg>